<mxfile host="65bd71144e" modified="2020-11-18T00:47:09.649Z" agent="5.0 (Macintosh; Intel Mac OS X 10_15_7) AppleWebKit/537.36 (KHTML, like Gecko) Code/1.50.1 Chrome/83.0.4103.122 Electron/9.2.1 Safari/537.36" etag="aX7e8wu9YAcQsBOBsmcl" version="13.6.5">
    <diagram id="ZhMjGV96RPIfcOvgYgvg" name="目次">
        <mxGraphModel dx="624" dy="559" grid="1" gridSize="10" guides="1" tooltips="1" connect="1" arrows="1" fold="1" page="1" pageScale="1" pageWidth="827" pageHeight="1169" math="0" shadow="0">
            <root>
                <mxCell id="0"/>
                <mxCell id="1" parent="0"/>
                <mxCell id="2" value="&lt;div style=&quot;text-align: left&quot;&gt;&lt;span style=&quot;font-size: 26px&quot;&gt;第一章　序論&lt;/span&gt;&lt;/div&gt;&lt;font&gt;&lt;div style=&quot;text-align: left&quot;&gt;&lt;span style=&quot;font-size: 26px&quot;&gt;1.1　研究背景&lt;/span&gt;&lt;/div&gt;&lt;span style=&quot;font-size: 26px&quot;&gt;&lt;div style=&quot;text-align: left&quot;&gt;&lt;span&gt;1.2　目的&lt;/span&gt;&lt;/div&gt;&lt;/span&gt;&lt;div style=&quot;text-align: left&quot;&gt;&lt;br&gt;&lt;/div&gt;&lt;span style=&quot;font-size: 26px&quot;&gt;&lt;div style=&quot;text-align: left&quot;&gt;&lt;span&gt;第二章　システム構成&lt;/span&gt;&lt;/div&gt;&lt;/span&gt;&lt;span style=&quot;font-size: 26px&quot;&gt;&lt;div style=&quot;text-align: left&quot;&gt;&lt;span&gt;2.1　システム概要&lt;/span&gt;&lt;/div&gt;&lt;div style=&quot;text-align: left&quot;&gt;&lt;span&gt;2.2　機能一覧&lt;/span&gt;&lt;/div&gt;&lt;div style=&quot;text-align: left&quot;&gt;2.3　DB設計&lt;/div&gt;&lt;div style=&quot;text-align: left&quot;&gt;2.4　使用技術&lt;/div&gt;&lt;/span&gt;&lt;span style=&quot;font-size: 26px&quot;&gt;&lt;div style=&quot;text-align: left&quot;&gt;&lt;br&gt;&lt;/div&gt;&lt;/span&gt;&lt;span style=&quot;font-size: 26px&quot;&gt;&lt;div style=&quot;text-align: left&quot;&gt;&lt;span&gt;&lt;br&gt;&lt;/span&gt;&lt;/div&gt;&lt;div style=&quot;text-align: left&quot;&gt;第三章　Soft-computing&lt;span&gt;&lt;br&gt;&lt;/span&gt;&lt;/div&gt;&lt;div style=&quot;text-align: left&quot;&gt;3.1　時間区分によるマッチング&lt;/div&gt;&lt;div style=&quot;text-align: left&quot;&gt;3.2　全体俯瞰からの遺伝的アルゴリズム&lt;/div&gt;&lt;div style=&quot;text-align: left&quot;&gt;3.3　human in the Loop AI&lt;/div&gt;&lt;div style=&quot;text-align: left&quot;&gt;3.4　従業員と仕事のクラスタリング&lt;/div&gt;&lt;/span&gt;&lt;div style=&quot;text-align: left&quot;&gt;&lt;span style=&quot;text-align: center ; font-size: 26px&quot;&gt;&lt;div style=&quot;text-align: left&quot;&gt;3.5　目的関数&lt;/div&gt;&lt;/span&gt;&lt;span style=&quot;text-align: center ; font-size: 26px&quot;&gt;&lt;div style=&quot;text-align: left&quot;&gt;3.6　制約&lt;/div&gt;&lt;/span&gt;&lt;/div&gt;&lt;div style=&quot;text-align: left&quot;&gt;&lt;br&gt;&lt;/div&gt;&lt;div style=&quot;text-align: left&quot;&gt;&lt;br&gt;&lt;/div&gt;&lt;span style=&quot;font-size: 26px&quot;&gt;&lt;div style=&quot;text-align: left&quot;&gt;&lt;span&gt;第四章　システムのテストと評価&lt;/span&gt;&lt;/div&gt;&lt;/span&gt;&lt;span style=&quot;font-size: 26px&quot;&gt;&lt;div style=&quot;text-align: left&quot;&gt;&lt;span&gt;4.1　従来のシフト作り&lt;/span&gt;&lt;/div&gt;&lt;/span&gt;&lt;span style=&quot;font-size: 26px&quot;&gt;&lt;div style=&quot;text-align: left&quot;&gt;&lt;span&gt;4.2　今回のシステムの運用&lt;/span&gt;&lt;/div&gt;&lt;div style=&quot;text-align: left&quot;&gt;&lt;span&gt;4.3　評価方法&lt;/span&gt;&lt;/div&gt;&lt;/span&gt;&lt;div style=&quot;text-align: left&quot;&gt;&lt;br&gt;&lt;/div&gt;&lt;span style=&quot;font-size: 26px&quot;&gt;&lt;div style=&quot;text-align: left&quot;&gt;&lt;br&gt;&lt;/div&gt;&lt;/span&gt;&lt;div style=&quot;text-align: left&quot;&gt;&lt;span style=&quot;font-size: 26px&quot;&gt;&lt;br&gt;&lt;/span&gt;&lt;/div&gt;&lt;div style=&quot;text-align: left&quot;&gt;&lt;br&gt;&lt;/div&gt;&lt;span style=&quot;font-size: 26px&quot;&gt;&lt;div style=&quot;text-align: left&quot;&gt;&lt;span&gt;第五章　結論&lt;/span&gt;&lt;/div&gt;&lt;/span&gt;&lt;div style=&quot;text-align: left&quot;&gt;&lt;br&gt;&lt;/div&gt;&lt;div style=&quot;text-align: left&quot;&gt;&lt;br&gt;&lt;/div&gt;&lt;span style=&quot;font-size: 26px&quot;&gt;&lt;div style=&quot;text-align: left&quot;&gt;&lt;span&gt;第六章　参考文献&lt;/span&gt;&lt;/div&gt;&lt;/span&gt;&lt;/font&gt;" style="rounded=0;whiteSpace=wrap;html=1;fontStyle=0" parent="1" vertex="1">
                    <mxGeometry x="80" y="50" width="640" height="1340" as="geometry"/>
                </mxCell>
                <mxCell id="3" style="edgeStyle=orthogonalEdgeStyle;rounded=0;orthogonalLoop=1;jettySize=auto;html=1;" edge="1" parent="1" source="2" target="2">
                    <mxGeometry relative="1" as="geometry"/>
                </mxCell>
            </root>
        </mxGraphModel>
    </diagram>
</mxfile>